<svg xmlns="http://www.w3.org/2000/svg" viewBox="0 0 1200 900" role="img" aria-label="Фетучини Альфредо с курицей">
  <rect width="1200" height="900" fill="#f4e9dc" />
  <circle cx="1030" cy="130" r="150" fill="#dfe7d3" />
  <circle cx="170" cy="770" r="180" fill="#f0d4bf" />
  <ellipse cx="600" cy="455" rx="320" ry="286" fill="#e0d1c2" opacity="0.35" />
  <circle cx="600" cy="430" r="280" fill="#fffaf4" />
  <circle cx="600" cy="430" r="225" fill="#f0e3d5" />
  <g fill="none" stroke="#efbe70" stroke-width="30" stroke-linecap="round">
    <path d="M448 370c38-43 86-57 144-44 53 11 98 39 143 91" />
    <path d="M424 445c58-46 119-62 182-49 53 11 101 39 146 84" />
    <path d="M456 510c45-24 92-29 142-14 47 14 85 42 116 83" />
  </g>
  <ellipse cx="536" cy="388" rx="32" ry="24" fill="#f7c877" />
  <ellipse cx="650" cy="465" rx="40" ry="26" fill="#f7c877" />
  <ellipse cx="700" cy="355" rx="36" ry="22" fill="#f7c877" />
  <circle cx="750" cy="432" r="18" fill="#d68155" />
  <circle cx="478" cy="466" r="15" fill="#d68155" />
  <circle cx="690" cy="532" r="10" fill="#5f7243" />
  <circle cx="540" cy="540" r="9" fill="#5f7243" />
</svg>
