<svg xmlns="http://www.w3.org/2000/svg" viewBox="0 0 1200 900" role="img" aria-label="Ригатони Болоньезе">
  <rect width="1200" height="900" fill="#f5eadf" />
  <circle cx="1080" cy="170" r="160" fill="#ead1ba" />
  <circle cx="150" cy="150" r="130" fill="#dce5ce" />
  <ellipse cx="600" cy="470" rx="320" ry="286" fill="#dcc9b7" opacity="0.36" />
  <circle cx="600" cy="440" r="280" fill="#fffaf5" />
  <circle cx="600" cy="440" r="225" fill="#eee0d1" />
  <g fill="#d87349">
    <ellipse cx="560" cy="398" rx="58" ry="38" />
    <ellipse cx="650" cy="442" rx="62" ry="40" />
    <ellipse cx="515" cy="500" rx="54" ry="34" />
    <ellipse cx="705" cy="350" rx="50" ry="32" />
  </g>
  <g fill="none" stroke="#f0bb63" stroke-width="28" stroke-linecap="round">
    <path d="M485 365c22 30 42 50 59 60" />
    <path d="M578 405c17 24 39 48 63 70" />
    <path d="M467 460c19 18 41 40 66 65" />
    <path d="M635 470c20 18 46 45 76 79" />
  </g>
  <circle cx="714" cy="510" r="18" fill="#5f7243" />
  <circle cx="630" cy="334" r="14" fill="#5f7243" />
  <circle cx="520" cy="545" r="12" fill="#edc36f" />
</svg>
