<svg xmlns="http://www.w3.org/2000/svg" viewBox="0 0 1200 900" role="img" aria-label="Тальятелле с белыми грибами">
  <rect width="1200" height="900" fill="#f6efe6" />
  <circle cx="1020" cy="150" r="160" fill="#dde4d0" />
  <circle cx="220" cy="760" r="170" fill="#ecd7c8" />
  <ellipse cx="600" cy="470" rx="320" ry="286" fill="#d8cbbe" opacity="0.35" />
  <circle cx="600" cy="438" r="280" fill="#fffaf6" />
  <circle cx="600" cy="438" r="225" fill="#eee2d6" />
  <g fill="none" stroke="#efbb68" stroke-width="28" stroke-linecap="round">
    <path d="M450 360c42-34 86-44 132-31 44 13 89 40 133 84" />
    <path d="M432 430c54-30 110-39 167-24 49 13 93 39 135 76" />
    <path d="M476 510c42-16 83-17 124-2 36 14 70 39 103 74" />
  </g>
  <g fill="#7f5b40">
    <ellipse cx="520" cy="395" rx="34" ry="22" />
    <ellipse cx="675" cy="360" rx="30" ry="20" />
    <ellipse cx="640" cy="500" rx="38" ry="25" />
    <ellipse cx="490" cy="500" rx="32" ry="21" />
  </g>
  <circle cx="568" cy="332" r="11" fill="#5f7243" />
  <circle cx="712" cy="455" r="10" fill="#5f7243" />
  <circle cx="602" cy="564" r="9" fill="#f1d89a" />
</svg>
