<svg xmlns="http://www.w3.org/2000/svg" viewBox="0 0 1200 900" role="img" aria-label="Тортеллини с индейкой и шалфеем">
  <rect width="1200" height="900" fill="#f4ece2" />
  <circle cx="1060" cy="160" r="150" fill="#e7d3c1" />
  <circle cx="170" cy="720" r="170" fill="#dde5cf" />
  <ellipse cx="600" cy="470" rx="320" ry="286" fill="#dcccc0" opacity="0.34" />
  <circle cx="600" cy="440" r="280" fill="#fffaf5" />
  <circle cx="600" cy="440" r="225" fill="#efe3d6" />
  <g fill="#f0bd69">
    <path d="M490 370c31 0 56 20 62 48-19 12-43 18-64 14-24-5-43-20-54-43 12-12 31-19 56-19Z" />
    <path d="M676 348c29 2 54 22 60 50-17 10-40 16-61 12-22-4-42-18-54-38 11-15 30-25 55-24Z" />
    <path d="M620 482c31 2 58 22 64 52-19 10-44 15-67 10-23-4-43-18-55-41 12-15 33-23 58-21Z" />
    <path d="M470 504c28 1 51 19 58 45-16 10-37 14-57 10-22-5-40-17-51-37 11-13 28-19 50-18Z" />
  </g>
  <circle cx="585" cy="398" r="16" fill="#d5784d" />
  <circle cx="705" cy="475" r="13" fill="#d5784d" />
  <circle cx="520" cy="540" r="10" fill="#5c7042" />
  <circle cx="720" cy="338" r="9" fill="#5c7042" />
</svg>
