<svg xmlns="http://www.w3.org/2000/svg" viewBox="0 0 1200 630" role="img" aria-label="Pastodel">
  <defs>
    <linearGradient id="bg" x1="0%" x2="100%" y1="0%" y2="100%">
      <stop offset="0%" stop-color="#faf4ec" />
      <stop offset="100%" stop-color="#efdfcf" />
    </linearGradient>
    <linearGradient id="card" x1="0%" x2="100%" y1="0%" y2="100%">
      <stop offset="0%" stop-color="#d17947" />
      <stop offset="100%" stop-color="#a55029" />
    </linearGradient>
  </defs>
  <rect width="1200" height="630" fill="url(#bg)" />
  <circle cx="1000" cy="120" r="160" fill="#dfe5d1" opacity="0.9" />
  <circle cx="220" cy="560" r="190" fill="#f0d4bf" opacity="0.8" />
  <rect x="100" y="84" width="1000" height="462" rx="44" fill="#fffaf5" opacity="0.92" />
  <rect x="150" y="152" width="112" height="112" rx="28" fill="url(#card)" />
  <path
    d="M190 182h26c15.2 0 24.7 8.2 24.7 21.1 0 13.3-9.7 21.7-25.3 21.7H203v23h-13V182Zm25.2 32.7c8.4 0 13.2-3.9 13.2-11.1 0-6.9-4.8-10.6-13.2-10.6H203v21.7h12.2Z"
    fill="#fffaf6"
  />
  <text x="312" y="220" fill="#1f1a16" font-size="78" font-family="Georgia, serif" font-weight="700">Pastodel</text>
  <text x="312" y="286" fill="#6a5c4d" font-size="28" font-family="Avenir Next, Segoe UI, sans-serif">замороженная готовая паста для современной полки</text>
  <circle cx="860" cy="338" r="142" fill="#fffaf5" />
  <circle cx="860" cy="338" r="112" fill="#f1e3d4" />
  <g fill="none" stroke="#eda45f" stroke-width="24" stroke-linecap="round">
    <path d="M794 320c16-42 45-60 84-54 38 6 62 31 71 72" />
    <path d="M784 360c36-28 72-39 108-32 32 6 57 24 78 55" />
    <path d="M815 390c24-15 48-20 72-14 18 4 36 18 55 40" />
  </g>
  <circle cx="831" cy="298" r="18" fill="#d36f44" />
  <circle cx="908" cy="372" r="14" fill="#58703f" />
  <circle cx="886" cy="278" r="11" fill="#e8d39c" />
</svg>
